<mxfile host="app.diagrams.net" modified="2023-09-06T08:20:36.374Z" agent="Mozilla/5.0 (Windows NT 10.0; Win64; x64) AppleWebKit/537.36 (KHTML, like Gecko) Chrome/116.0.0.0 Safari/537.36" version="21.7.2" etag="fWYvi_S00hy2v4GfYxKA" type="github">
  <diagram name="Page-1" id="6f6-rWWsNm-6pzQ9wwHi">
    <mxGraphModel>
      <root>
        <mxCell id="0" />
        <mxCell id="1" parent="0" />
      </root>
    </mxGraphModel>
  </diagram>
</mxfile>
